<mxfile host="app.diagrams.net" modified="2022-01-29T07:14:24.973Z" agent="5.0 (Windows NT 10.0; Win64; x64) AppleWebKit/537.36 (KHTML, like Gecko) Chrome/89.0.4389.90 Safari/537.36" etag="r8nzaQNdb_KmpWEoo9nH" version="15.7.4" type="github">
  <diagram id="t_1q5KEKuvA8vM5OTTdt" name="Page-1">
    <mxGraphModel dx="1422" dy="762" grid="1" gridSize="10" guides="1" tooltips="1" connect="1" arrows="1" fold="1" page="1" pageScale="1" pageWidth="827" pageHeight="1169" math="0" shadow="0">
      <root>
        <mxCell id="0" />
        <mxCell id="1" parent="0" />
        <mxCell id="02zp73fsQsVZQxTClNC5-2" value="" style="rounded=0;whiteSpace=wrap;html=1;fillColor=#dae8fc;strokeColor=#6c8ebf;" vertex="1" parent="1">
          <mxGeometry x="160" y="70" width="390" height="200" as="geometry" />
        </mxCell>
        <mxCell id="02zp73fsQsVZQxTClNC5-3" value="Node Manager" style="rounded=1;whiteSpace=wrap;html=1;fillColor=#d5e8d4;strokeColor=#82b366;" vertex="1" parent="1">
          <mxGeometry x="305" y="80" width="100" height="30" as="geometry" />
        </mxCell>
        <mxCell id="02zp73fsQsVZQxTClNC5-4" value="" style="rounded=1;whiteSpace=wrap;html=1;fillColor=#e51400;fontColor=#ffffff;strokeColor=#B20000;" vertex="1" parent="1">
          <mxGeometry x="630" y="240" width="120" height="60" as="geometry" />
        </mxCell>
        <mxCell id="02zp73fsQsVZQxTClNC5-5" value="Executor" style="rounded=1;whiteSpace=wrap;html=1;fillColor=#d5e8d4;strokeColor=#82b366;" vertex="1" parent="1">
          <mxGeometry x="190" y="130" width="100" height="30" as="geometry" />
        </mxCell>
        <mxCell id="02zp73fsQsVZQxTClNC5-6" value="Executor" style="rounded=1;whiteSpace=wrap;html=1;fillColor=#d5e8d4;strokeColor=#82b366;" vertex="1" parent="1">
          <mxGeometry x="305" y="130" width="100" height="30" as="geometry" />
        </mxCell>
        <mxCell id="02zp73fsQsVZQxTClNC5-7" value="Alluxio client" style="rounded=1;whiteSpace=wrap;html=1;fillColor=#d5e8d4;strokeColor=#82b366;" vertex="1" parent="1">
          <mxGeometry x="430" y="130" width="100" height="30" as="geometry" />
        </mxCell>
        <mxCell id="02zp73fsQsVZQxTClNC5-8" value="DataNode" style="rounded=1;whiteSpace=wrap;html=1;fillColor=#d5e8d4;strokeColor=#82b366;" vertex="1" parent="1">
          <mxGeometry x="190" y="190" width="100" height="30" as="geometry" />
        </mxCell>
        <mxCell id="02zp73fsQsVZQxTClNC5-9" value="AlluxioWorker" style="rounded=1;whiteSpace=wrap;html=1;fillColor=#008a00;strokeColor=#005700;fontColor=#ffffff;" vertex="1" parent="1">
          <mxGeometry x="305" y="190" width="100" height="30" as="geometry" />
        </mxCell>
        <mxCell id="02zp73fsQsVZQxTClNC5-10" value="Alluxio Master" style="rounded=1;whiteSpace=wrap;html=1;fillColor=#e51400;fontColor=#ffffff;strokeColor=#B20000;" vertex="1" parent="1">
          <mxGeometry x="640" y="250" width="120" height="60" as="geometry" />
        </mxCell>
        <mxCell id="02zp73fsQsVZQxTClNC5-11" value="" style="rounded=0;whiteSpace=wrap;html=1;fillColor=#dae8fc;strokeColor=#6c8ebf;" vertex="1" parent="1">
          <mxGeometry x="160" y="310" width="390" height="200" as="geometry" />
        </mxCell>
        <mxCell id="02zp73fsQsVZQxTClNC5-23" style="edgeStyle=orthogonalEdgeStyle;rounded=0;orthogonalLoop=1;jettySize=auto;html=1;exitX=0;exitY=0.5;exitDx=0;exitDy=0;entryX=0.442;entryY=1.033;entryDx=0;entryDy=0;entryPerimeter=0;" edge="1" parent="1" source="02zp73fsQsVZQxTClNC5-12" target="02zp73fsQsVZQxTClNC5-21">
          <mxGeometry relative="1" as="geometry" />
        </mxCell>
        <mxCell id="02zp73fsQsVZQxTClNC5-12" value="Node Manager" style="rounded=1;whiteSpace=wrap;html=1;fillColor=#d5e8d4;strokeColor=#82b366;" vertex="1" parent="1">
          <mxGeometry x="305" y="320" width="100" height="30" as="geometry" />
        </mxCell>
        <mxCell id="02zp73fsQsVZQxTClNC5-13" value="Executor" style="rounded=1;whiteSpace=wrap;html=1;fillColor=#d5e8d4;strokeColor=#82b366;" vertex="1" parent="1">
          <mxGeometry x="190" y="370" width="100" height="30" as="geometry" />
        </mxCell>
        <mxCell id="02zp73fsQsVZQxTClNC5-14" value="Executor" style="rounded=1;whiteSpace=wrap;html=1;fillColor=#d5e8d4;strokeColor=#82b366;" vertex="1" parent="1">
          <mxGeometry x="305" y="370" width="100" height="30" as="geometry" />
        </mxCell>
        <mxCell id="02zp73fsQsVZQxTClNC5-15" value="Alluxio client" style="rounded=1;whiteSpace=wrap;html=1;fillColor=#d5e8d4;strokeColor=#82b366;" vertex="1" parent="1">
          <mxGeometry x="430" y="370" width="100" height="30" as="geometry" />
        </mxCell>
        <mxCell id="02zp73fsQsVZQxTClNC5-16" value="DataNode" style="rounded=1;whiteSpace=wrap;html=1;fillColor=#d5e8d4;strokeColor=#82b366;" vertex="1" parent="1">
          <mxGeometry x="190" y="430" width="100" height="30" as="geometry" />
        </mxCell>
        <mxCell id="02zp73fsQsVZQxTClNC5-17" value="AlluxioWorker" style="rounded=1;whiteSpace=wrap;html=1;fillColor=#008a00;strokeColor=#005700;fontColor=#ffffff;" vertex="1" parent="1">
          <mxGeometry x="305" y="430" width="100" height="30" as="geometry" />
        </mxCell>
        <mxCell id="02zp73fsQsVZQxTClNC5-20" value="" style="rounded=1;whiteSpace=wrap;html=1;fillColor=#e51400;fontColor=#ffffff;strokeColor=#B20000;" vertex="1" parent="1">
          <mxGeometry x="10" y="240" width="120" height="60" as="geometry" />
        </mxCell>
        <mxCell id="02zp73fsQsVZQxTClNC5-21" value="RM service" style="rounded=1;whiteSpace=wrap;html=1;fillColor=#e51400;fontColor=#ffffff;strokeColor=#B20000;" vertex="1" parent="1">
          <mxGeometry x="20" y="250" width="120" height="60" as="geometry" />
        </mxCell>
        <mxCell id="02zp73fsQsVZQxTClNC5-22" style="edgeStyle=orthogonalEdgeStyle;rounded=0;orthogonalLoop=1;jettySize=auto;html=1;exitX=0;exitY=0.5;exitDx=0;exitDy=0;entryX=0.5;entryY=0;entryDx=0;entryDy=0;" edge="1" parent="1" source="02zp73fsQsVZQxTClNC5-3" target="02zp73fsQsVZQxTClNC5-21">
          <mxGeometry relative="1" as="geometry" />
        </mxCell>
      </root>
    </mxGraphModel>
  </diagram>
</mxfile>
